<svg width="170" height="335" viewBox="0 0 170 335" fill="none" xmlns="http://www.w3.org/2000/svg">
<path d="M0.5 1V106H28V1H0.5Z" fill="#F5F5F5"/>
<path d="M36 1V106H62.5V22C59 6.5 45 1 36 1Z" fill="#F5F5F5"/>
<path d="M71.5 84C77.5 99.5 85 106.5 98.5 106V1H71.5V84Z" fill="#F5F5F5"/>
<path d="M134 106H107.5V1H134V106Z" fill="#F5F5F5"/>
<path d="M142 106H169.5V79H142V106Z" fill="#F5F5F5"/>
<path d="M142 115H169.5V220H142V115Z" fill="#F5F5F5"/>
<path d="M107.5 220H134V137C134.5 133 124.5 114.5 107.5 115V220Z" fill="#F5F5F5"/>
<path d="M99 115V220H72V115H99Z" fill="#F5F5F5"/>
<path d="M62.5 115V220H36.5V136.5C36.5 131 48 114 62.5 115Z" fill="#F5F5F5"/>
<path d="M169.5 307V334H142V307H169.5Z" fill="#F5F5F5"/>
<path d="M107.5 228.5V334C116.5 334 128.5 330 134 311V248C132 240 118.5 228.5 107.5 228.5Z" fill="#F5F5F5"/>
<path d="M99 228.5V334C92 335.5 72 327 72 311V248C78 235.5 88.5 228.5 99 228.5Z" fill="#F5F5F5"/>
<path d="M36.5 334H62.5V311C62.5 295.8 47 285.5 36.5 285.5V334Z" fill="#F5F5F5"/>
<path d="M36.5 228.5V277C46.1 277 61.5 268 62.5 254V228.5H36.5Z" fill="#F5F5F5"/>
<path d="M0.5 334H28V192.5H0.5V334Z" fill="#F5F5F5"/>
<path d="M0.5 1V106H28V1H0.5Z" stroke="#F5F5F5"/>
<path d="M36 1V106H62.5V22C59 6.5 45 1 36 1Z" stroke="#F5F5F5"/>
<path d="M71.5 84C77.5 99.5 85 106.5 98.5 106V1H71.5V84Z" stroke="#F5F5F5"/>
<path d="M134 106H107.5V1H134V106Z" stroke="#F5F5F5"/>
<path d="M142 106H169.5V79H142V106Z" stroke="#F5F5F5"/>
<path d="M142 115H169.5V220H142V115Z" stroke="#F5F5F5"/>
<path d="M107.5 220H134V137C134.5 133 124.5 114.5 107.5 115V220Z" stroke="#F5F5F5"/>
<path d="M99 115V220H72V115H99Z" stroke="#F5F5F5"/>
<path d="M62.5 115V220H36.5V136.5C36.5 131 48 114 62.5 115Z" stroke="#F5F5F5"/>
<path d="M169.5 307V334H142V307H169.5Z" stroke="#F5F5F5"/>
<path d="M107.5 228.5V334C116.5 334 128.5 330 134 311V248C132 240 118.5 228.5 107.5 228.5Z" stroke="#F5F5F5"/>
<path d="M99 228.5V334C92 335.5 72 327 72 311V248C78 235.5 88.5 228.5 99 228.5Z" stroke="#F5F5F5"/>
<path d="M36.5 334H62.5V311C62.5 295.8 47 285.5 36.5 285.5V334Z" stroke="#F5F5F5"/>
<path d="M36.5 228.5V277C46.1 277 61.5 268 62.5 254V228.5H36.5Z" stroke="#F5F5F5"/>
<path d="M0.5 334H28V192.5H0.5V334Z" stroke="#F5F5F5"/>
</svg>
